# xmcd
#
# Track frame offsets:
#	150
#	21965
#	34913
#	55240
#	73432
#	91251
#	107191
#	120823
#	135680
#	146638
#	163057
#	176490
#	189812
#	200854
#	211287
#
# Disc length: 2959
#
# Revision: 1
# Processed by: cddbd v1.5.1PL0 Copyright (c) Steve Scherf et al.
# Submitted via: ExactAudioCopy v0.95a5
# Normalized: r0:TRMNUM
#
DISCID=dd0b8d0f
DTITLE=Zz \\ Va - The World Greatest Garth Brooks Tribute and his Roots 
DYEAR=1900
DGENRE=Country
TTITLE0=Friends In Low Places
TTITLE1=She's Every Woman
TTITLE2=Shameless
TTITLE3=Standing Outside The Fire
TTITLE4=Thunder Rolls
TTITLE5=Two Pina Coladas
TTITLE6=Lost In You
TTITLE7=Wild Horses
TTITLE8=Longneck Bottle
TTITLE9=If Tororrow Never Comes
TTITLE10=I walk The Line
TTITLE11=Devil In The Bottle
TTITLE12=Blame It On The Times
TTITLE13=A - 11
TTITLE14=What Am I Living For
EXTD=
EXTT0=
EXTT1=
EXTT2=
EXTT3=
EXTT4=
EXTT5=
EXTT6=
EXTT7=
EXTT8=
EXTT9=
EXTT10=
EXTT11=
EXTT12=
EXTT13=
EXTT14=
PLAYORDER=
